<svg width="27" height="26" viewBox="0 0 27 26" fill="none" xmlns="http://www.w3.org/2000/svg">
<rect width="25.6" height="25.6" transform="translate(0.954224)" fill="transparent"/>
<path d="M25.3833 6.93696C25.1042 5.88585 24.2817 5.05802 23.2374 4.77709C21.3445 4.2666 13.7542 4.2666 13.7542 4.2666C13.7542 4.2666 6.16401 4.2666 4.27108 4.77709C3.22676 5.05807 2.40428 5.88585 2.12512 6.93696C1.61792 8.84216 1.61792 12.8172 1.61792 12.8172C1.61792 12.8172 1.61792 16.7922 2.12512 18.6974C2.40428 19.7485 3.22676 20.5418 4.27108 20.8228C6.16401 21.3333 13.7542 21.3333 13.7542 21.3333C13.7542 21.3333 21.3445 21.3333 23.2374 20.8228C24.2817 20.5418 25.1042 19.7485 25.3833 18.6974C25.8905 16.7922 25.8905 12.8172 25.8905 12.8172C25.8905 12.8172 25.8905 8.84216 25.3833 6.93696ZM11.2718 16.4262V9.20816L17.6157 12.8173L11.2718 16.4262Z" fill="#38323E"/>
</svg>
