<svg width="27" height="26" viewBox="0 0 27 26" fill="none" xmlns="http://www.w3.org/2000/svg">
<g clip-path="url(#clip0_183_329)">
<path d="M26.1542 12.8004C26.1542 5.95039 20.6042 0.400391 13.7542 0.400391C6.90425 0.400391 1.35425 5.95039 1.35425 12.8004C1.35425 18.9894 5.88875 24.1194 11.8167 25.0504V16.3849H8.66675V12.8004H11.8167V10.0684C11.8167 6.96089 13.6667 5.24439 16.5002 5.24439C17.8572 5.24439 19.2762 5.48639 19.2762 5.48639V8.53639H17.7122C16.1722 8.53639 15.6917 9.49239 15.6917 10.4729V12.8004H19.1307L18.5807 16.3849H15.6917V25.0504C21.6197 24.1194 26.1542 18.9894 26.1542 12.8004Z" fill="#38323E"/>
</g>
<defs>
<clipPath id="clip0_183_329">
<rect width="25.6" height="25.6" fill="white" transform="translate(0.954224)"/>
</clipPath>
</defs>
</svg>
