<svg width="178" height="88" viewBox="0 0 178 88" fill="none" xmlns="http://www.w3.org/2000/svg">
<path d="M95.4488 61.5974C83.1597 64.6611 68.4862 65.2432 57.6863 57.5059C50.7845 52.5613 47.1195 42.5627 49.6989 34.4471C52.1349 26.7825 57.8236 20.0481 66.3482 20.2534C70.7914 20.3604 74.6226 22.4046 75.4314 27.0839C76.6672 34.2328 69.5355 41.6308 63.8653 44.7404C46.1697 54.4451 21.1365 53.9051 4.2793 42.6406" stroke="#5F39FF" stroke-width="3" stroke-linecap="round"/>
<path d="M11.7092 55.8447C9.64727 52.9634 5.14452 46.2418 3.62926 42.4054" stroke="#5F39FF" stroke-width="3" stroke-linecap="round"/>
<path d="M3.62939 42.4054C7.14204 41.9419 15.1264 40.6361 18.9628 39.1209" stroke="#5F39FF" stroke-width="3" stroke-linecap="round"/>
<path d="M108.88 69.1801C107.884 69.1801 107.038 69.0001 106.342 68.6401C105.646 68.2801 105.022 67.7521 104.47 67.0561L105.874 65.6521C106.222 66.1561 106.636 66.5521 107.116 66.8401C107.596 67.1161 108.208 67.2541 108.952 67.2541C109.648 67.2541 110.2 67.1101 110.608 66.8221C111.028 66.5341 111.238 66.1381 111.238 65.6341C111.238 65.2141 111.13 64.8721 110.914 64.6081C110.698 64.3441 110.41 64.1281 110.05 63.9601C109.702 63.7801 109.312 63.6241 108.88 63.4921C108.46 63.3481 108.034 63.1921 107.602 63.0241C107.182 62.8441 106.792 62.6221 106.432 62.3581C106.084 62.0941 105.802 61.7521 105.586 61.3321C105.37 60.9121 105.262 60.3781 105.262 59.7301C105.262 58.9861 105.442 58.3561 105.802 57.8401C106.174 57.3121 106.672 56.9101 107.296 56.6341C107.92 56.3581 108.616 56.2201 109.384 56.2201C110.212 56.2201 110.95 56.3821 111.598 56.7061C112.258 57.0301 112.792 57.4441 113.2 57.9481L111.796 59.3521C111.436 58.9441 111.058 58.6441 110.662 58.4521C110.278 58.2481 109.834 58.1461 109.33 58.1461C108.706 58.1461 108.214 58.2721 107.854 58.5241C107.506 58.7761 107.332 59.1301 107.332 59.5861C107.332 59.9701 107.44 60.2821 107.656 60.5221C107.872 60.7501 108.154 60.9481 108.502 61.1161C108.862 61.2721 109.252 61.4221 109.672 61.5661C110.104 61.7101 110.53 61.8721 110.95 62.0521C111.382 62.2321 111.772 62.4661 112.12 62.7541C112.48 63.0301 112.768 63.3901 112.984 63.8341C113.2 64.2781 113.308 64.8361 113.308 65.5081C113.308 66.6361 112.906 67.5301 112.102 68.1901C111.31 68.8501 110.236 69.1801 108.88 69.1801ZM118.615 69.1801C117.835 69.1801 117.127 68.9821 116.491 68.5861C115.867 68.1901 115.369 67.6561 114.997 66.9841C114.637 66.3001 114.457 65.5381 114.457 64.6981C114.457 63.8461 114.637 63.0841 114.997 62.4121C115.369 61.7281 115.867 61.1881 116.491 60.7921C117.127 60.3841 117.835 60.1801 118.615 60.1801C119.275 60.1801 119.857 60.3241 120.361 60.6121C120.877 60.8881 121.285 61.2721 121.585 61.7641C121.885 62.2561 122.035 62.8141 122.035 63.4381V65.9221C122.035 66.5461 121.885 67.1041 121.585 67.5961C121.297 68.0881 120.895 68.4781 120.379 68.7661C119.863 69.0421 119.275 69.1801 118.615 69.1801ZM118.939 67.3081C119.671 67.3081 120.259 67.0621 120.703 66.5701C121.159 66.0781 121.387 65.4481 121.387 64.6801C121.387 64.1641 121.285 63.7081 121.081 63.3121C120.877 62.9161 120.589 62.6101 120.217 62.3941C119.857 62.1661 119.431 62.0521 118.939 62.0521C118.459 62.0521 118.033 62.1661 117.661 62.3941C117.301 62.6101 117.013 62.9161 116.797 63.3121C116.593 63.7081 116.491 64.1641 116.491 64.6801C116.491 65.1961 116.593 65.6521 116.797 66.0481C117.013 66.4441 117.301 66.7561 117.661 66.9841C118.033 67.2001 118.459 67.3081 118.939 67.3081ZM121.261 69.0001V66.6781L121.603 64.5721L121.261 62.4841V60.3601H123.241V69.0001H121.261ZM128.354 69.0001L124.412 60.3601H126.608L129.614 67.3981H128.318L131.342 60.3601H133.448L129.506 69.0001H128.354ZM138.329 69.1801C137.465 69.1801 136.685 68.9881 135.989 68.6041C135.305 68.2081 134.759 67.6681 134.351 66.9841C133.955 66.3001 133.757 65.5321 133.757 64.6801C133.757 63.8281 133.955 63.0661 134.351 62.3941C134.747 61.7101 135.281 61.1701 135.953 60.7741C136.637 60.3781 137.393 60.1801 138.221 60.1801C139.025 60.1801 139.733 60.3661 140.345 60.7381C140.969 61.1101 141.455 61.6201 141.803 62.2681C142.163 62.9161 142.343 63.6541 142.343 64.4821C142.343 64.6261 142.331 64.7761 142.307 64.9321C142.295 65.0761 142.271 65.2381 142.235 65.4181H135.143V63.7981H141.209L140.471 64.4461C140.447 63.9181 140.345 63.4741 140.165 63.1141C139.985 62.7541 139.727 62.4781 139.391 62.2861C139.067 62.0941 138.665 61.9981 138.185 61.9981C137.681 61.9981 137.243 62.1061 136.871 62.3221C136.499 62.5381 136.211 62.8441 136.007 63.2401C135.803 63.6241 135.701 64.0861 135.701 64.6261C135.701 65.1661 135.809 65.6401 136.025 66.0481C136.241 66.4561 136.547 66.7741 136.943 67.0021C137.339 67.2181 137.795 67.3261 138.311 67.3261C138.755 67.3261 139.163 67.2481 139.535 67.0921C139.919 66.9361 140.243 66.7081 140.507 66.4081L141.767 67.6861C141.347 68.1781 140.837 68.5501 140.237 68.8021C139.637 69.0541 139.001 69.1801 138.329 69.1801ZM146.94 67.7761L151.584 62.8441C151.968 62.4361 152.28 62.0701 152.52 61.7461C152.76 61.4221 152.934 61.1161 153.042 60.8281C153.15 60.5401 153.204 60.2461 153.204 59.9461C153.204 59.3821 153.018 58.9441 152.646 58.6321C152.286 58.3081 151.824 58.1461 151.26 58.1461C150.66 58.1461 150.132 58.2961 149.676 58.5961C149.22 58.8961 148.812 59.3641 148.452 60.0001L147.012 58.8121C147.504 57.9601 148.11 57.3181 148.83 56.8861C149.55 56.4421 150.384 56.2201 151.332 56.2201C152.112 56.2201 152.796 56.3761 153.384 56.6881C153.972 57.0001 154.428 57.4381 154.752 58.0021C155.076 58.5541 155.238 59.1961 155.238 59.9281C155.238 60.4561 155.172 60.9301 155.04 61.3501C154.92 61.7581 154.71 62.1721 154.41 62.5921C154.11 63.0001 153.696 63.4801 153.168 64.0321L149.604 67.7221L146.94 67.7761ZM146.94 69.0001V67.7761L148.722 67.1461H155.49V69.0001H146.94ZM160.62 69.1801C159.744 69.1801 158.964 69.0301 158.28 68.7301C157.596 68.4181 157.02 67.9681 156.552 67.3801L157.956 65.9761C158.208 66.3601 158.562 66.6661 159.018 66.8941C159.486 67.1221 160.008 67.2361 160.584 67.2361C161.112 67.2361 161.574 67.1401 161.97 66.9481C162.366 66.7561 162.678 66.4801 162.906 66.1201C163.134 65.7601 163.248 65.3341 163.248 64.8421C163.248 64.3261 163.134 63.9001 162.906 63.5641C162.69 63.2161 162.396 62.9581 162.024 62.7901C161.664 62.6101 161.274 62.5201 160.854 62.5201C160.374 62.5201 159.942 62.5741 159.558 62.6821C159.186 62.7901 158.82 62.9821 158.46 63.2581L158.514 61.9621C158.706 61.7101 158.928 61.5061 159.18 61.3501C159.432 61.1821 159.726 61.0561 160.062 60.9721C160.398 60.8881 160.794 60.8461 161.25 60.8461C162.138 60.8461 162.882 61.0321 163.482 61.4041C164.094 61.7761 164.556 62.2741 164.868 62.8981C165.18 63.5101 165.336 64.1941 165.336 64.9501C165.336 65.7661 165.132 66.4921 164.724 67.1281C164.328 67.7641 163.776 68.2681 163.068 68.6401C162.36 69.0001 161.544 69.1801 160.62 69.1801ZM158.46 63.2581L157.326 62.1241L157.884 56.4001H159.774L159.126 62.3581L158.46 63.2581ZM158.244 58.2541L157.884 56.4001H164.634V58.2541H158.244ZM169.259 61.3141C168.791 61.3141 168.359 61.2001 167.963 60.9721C167.579 60.7441 167.273 60.4381 167.045 60.0541C166.817 59.6701 166.703 59.2381 166.703 58.7581C166.703 58.2781 166.817 57.8521 167.045 57.4801C167.273 57.0961 167.579 56.7901 167.963 56.5621C168.347 56.3341 168.779 56.2201 169.259 56.2201C169.739 56.2201 170.171 56.3341 170.555 56.5621C170.951 56.7901 171.263 57.0961 171.491 57.4801C171.719 57.8521 171.833 58.2781 171.833 58.7581C171.833 59.2381 171.719 59.6701 171.491 60.0541C171.263 60.4381 170.957 60.7441 170.573 60.9721C170.189 61.2001 169.751 61.3141 169.259 61.3141ZM169.259 59.7841C169.559 59.7841 169.799 59.6881 169.979 59.4961C170.159 59.3041 170.249 59.0581 170.249 58.7581C170.249 58.4581 170.153 58.2181 169.961 58.0381C169.781 57.8461 169.547 57.7501 169.259 57.7501C168.971 57.7501 168.737 57.8461 168.557 58.0381C168.377 58.2181 168.287 58.4581 168.287 58.7581C168.287 59.0581 168.377 59.3041 168.557 59.4961C168.737 59.6881 168.971 59.7841 169.259 59.7841ZM174.533 69.1801C174.065 69.1801 173.633 69.0661 173.237 68.8381C172.853 68.6101 172.547 68.3041 172.319 67.9201C172.091 67.5361 171.977 67.1041 171.977 66.6241C171.977 66.1441 172.091 65.7181 172.319 65.3461C172.547 64.9621 172.853 64.6561 173.237 64.4281C173.621 64.2001 174.053 64.0861 174.533 64.0861C175.013 64.0861 175.445 64.2001 175.829 64.4281C176.225 64.6561 176.537 64.9621 176.765 65.3461C176.993 65.7181 177.107 66.1441 177.107 66.6241C177.107 67.1041 176.993 67.5361 176.765 67.9201C176.537 68.3041 176.231 68.6101 175.847 68.8381C175.463 69.0661 175.025 69.1801 174.533 69.1801ZM174.533 67.6501C174.833 67.6501 175.073 67.5541 175.253 67.3621C175.445 67.1701 175.541 66.9241 175.541 66.6241C175.541 66.3361 175.445 66.0961 175.253 65.9041C175.061 65.7121 174.821 65.6161 174.533 65.6161C174.245 65.6161 174.011 65.7121 173.831 65.9041C173.651 66.0961 173.561 66.3361 173.561 66.6241C173.561 66.9241 173.651 67.1701 173.831 67.3621C174.011 67.5541 174.245 67.6501 174.533 67.6501ZM166.883 69.0001L174.965 56.4001H176.927L168.845 69.0001H166.883Z" fill="#5F39FF"/>
</svg>
