<svg width="25" height="24" viewBox="0 0 25 24" fill="none" xmlns="http://www.w3.org/2000/svg">
<path d="M12.6091 0C9.35263 0 8.94313 0.015 7.66363 0.072C6.38413 0.132 5.51263 0.333 4.74913 0.63C3.94827 0.931229 3.22287 1.40374 2.62363 2.0145C2.01325 2.61404 1.54079 3.33936 1.23913 4.14C0.942131 4.902 0.739631 5.775 0.681131 7.05C0.624131 8.3325 0.609131 8.7405 0.609131 12.0015C0.609131 15.2595 0.624131 15.6675 0.681131 16.947C0.741131 18.225 0.942131 19.0965 1.23913 19.86C1.54663 20.649 1.95613 21.318 2.62363 21.9855C3.28963 22.653 3.95863 23.064 4.74763 23.37C5.51263 23.667 6.38263 23.8695 7.66063 23.928C8.94163 23.985 9.34963 24 12.6091 24C15.8686 24 16.2751 23.985 17.5561 23.928C18.8326 23.868 19.7071 23.667 20.4706 23.37C21.271 23.0686 21.9959 22.5961 22.5946 21.9855C23.2621 21.318 23.6716 20.649 23.9791 19.86C24.2746 19.0965 24.4771 18.225 24.5371 16.947C24.5941 15.6675 24.6091 15.2595 24.6091 12C24.6091 8.7405 24.5941 8.3325 24.5371 7.0515C24.4771 5.775 24.2746 4.902 23.9791 4.14C23.6775 3.33934 23.2051 2.61401 22.5946 2.0145C21.9956 1.40351 21.2701 0.930968 20.4691 0.63C19.7041 0.333 18.8311 0.1305 17.5546 0.072C16.2736 0.015 15.8671 0 12.6061 0H12.6106H12.6091ZM11.5336 2.163H12.6106C15.8146 2.163 16.1941 2.1735 17.4586 2.232C18.6286 2.2845 19.2646 2.481 19.6876 2.6445C20.2471 2.862 20.6476 3.123 21.0676 3.543C21.4876 3.963 21.7471 4.362 21.9646 4.923C22.1296 5.3445 22.3246 5.9805 22.3771 7.1505C22.4356 8.415 22.4476 8.7945 22.4476 11.997C22.4476 15.1995 22.4356 15.5805 22.3771 16.845C22.3246 18.015 22.1281 18.6495 21.9646 19.0725C21.7722 19.5935 21.4652 20.0647 21.0661 20.451C20.6461 20.871 20.2471 21.1305 19.6861 21.348C19.2661 21.513 18.6301 21.708 17.4586 21.762C16.1941 21.819 15.8146 21.8325 12.6106 21.8325C9.40663 21.8325 9.02563 21.819 7.76113 21.762C6.59113 21.708 5.95663 21.513 5.53363 21.348C5.01238 21.1559 4.54082 20.8494 4.15363 20.451C3.75426 20.064 3.44672 19.5925 3.25363 19.071C3.09013 18.6495 2.89363 18.0135 2.84113 16.8435C2.78413 15.579 2.77213 15.1995 2.77213 11.994C2.77213 8.79 2.78413 8.412 2.84113 7.1475C2.89513 5.9775 3.09013 5.3415 3.25513 4.9185C3.47263 4.359 3.73363 3.9585 4.15363 3.5385C4.57363 3.1185 4.97263 2.859 5.53363 2.6415C5.95663 2.4765 6.59113 2.2815 7.76113 2.2275C8.86813 2.1765 9.29713 2.1615 11.5336 2.16V2.163V2.163ZM19.0156 4.155C18.8265 4.155 18.6393 4.19225 18.4646 4.26461C18.2899 4.33698 18.1311 4.44305 17.9974 4.57677C17.8637 4.71048 17.7576 4.86923 17.6852 5.04394C17.6129 5.21864 17.5756 5.4059 17.5756 5.595C17.5756 5.7841 17.6129 5.97135 17.6852 6.14606C17.7576 6.32077 17.8637 6.47952 17.9974 6.61323C18.1311 6.74695 18.2899 6.85302 18.4646 6.92539C18.6393 6.99775 18.8265 7.035 19.0156 7.035C19.3975 7.035 19.7638 6.88329 20.0339 6.61323C20.3039 6.34318 20.4556 5.97691 20.4556 5.595C20.4556 5.21309 20.3039 4.84682 20.0339 4.57677C19.7638 4.30671 19.3975 4.155 19.0156 4.155V4.155ZM12.6106 5.838C11.7932 5.82525 10.9815 5.97523 10.2226 6.27921C9.46372 6.58319 8.7729 7.03511 8.19036 7.60864C7.60781 8.18216 7.14518 8.86585 6.82939 9.61989C6.51361 10.3739 6.35098 11.1833 6.35098 12.0007C6.35098 12.8182 6.51361 13.6276 6.82939 14.3816C7.14518 15.1356 7.60781 15.8193 8.19036 16.3929C8.7729 16.9664 9.46372 17.4183 10.2226 17.7223C10.9815 18.0263 11.7932 18.1763 12.6106 18.1635C14.2284 18.1383 15.7715 17.4779 16.9066 16.3249C18.0417 15.1719 18.678 13.6188 18.678 12.0007C18.678 10.3827 18.0417 8.82962 16.9066 7.67662C15.7715 6.52363 14.2284 5.86324 12.6106 5.838V5.838ZM12.6106 7.9995C13.6716 7.9995 14.6892 8.42098 15.4394 9.17122C16.1897 9.92146 16.6111 10.939 16.6111 12C16.6111 13.061 16.1897 14.0785 15.4394 14.8288C14.6892 15.579 13.6716 16.0005 12.6106 16.0005C11.5496 16.0005 10.5321 15.579 9.78185 14.8288C9.03161 14.0785 8.61013 13.061 8.61013 12C8.61013 10.939 9.03161 9.92146 9.78185 9.17122C10.5321 8.42098 11.5496 7.9995 12.6106 7.9995V7.9995Z" fill="white"/>
</svg>
