<svg width="32" height="32" viewBox="0 0 32 32" fill="none" xmlns="http://www.w3.org/2000/svg">
<rect width="32" height="32" rx="16" fill="#F7F8F9"/>
<path d="M20.2422 20.2426C20.5025 19.9823 20.5025 19.5602 20.2422 19.2998L16.9428 16.0005L20.2431 12.7002C20.5034 12.4398 20.5034 12.0177 20.2431 11.7574C19.9827 11.497 19.5606 11.497 19.3003 11.7574L16 15.0577L12.6997 11.7574C12.4394 11.497 12.0173 11.497 11.7569 11.7574C11.4966 12.0177 11.4966 12.4398 11.7569 12.7002L15.0572 16.0005L11.7578 19.2998C11.4975 19.5602 11.4975 19.9823 11.7578 20.2426C12.0182 20.503 12.4403 20.503 12.7006 20.2426L16 16.9433L19.2994 20.2426C19.5597 20.503 19.9818 20.503 20.2422 20.2426Z" fill="#E70000"/>
</svg>
