<svg width="181" height="88" viewBox="0 0 181 88" fill="none" xmlns="http://www.w3.org/2000/svg">
<path d="M84.8604 61.5974C97.1495 64.6611 111.823 65.2432 122.623 57.5059C129.525 52.5613 133.19 42.5627 130.61 34.4471C128.174 26.7825 122.486 20.0481 113.961 20.2534C109.518 20.3604 105.687 22.4046 104.878 27.0839C103.642 34.2328 110.774 41.6308 116.444 44.7404C134.14 54.4451 159.173 53.9051 176.03 42.6406" stroke="#5F39FF" stroke-width="3" stroke-linecap="round"/>
<path d="M168.6 55.8447C170.662 52.9634 175.165 46.2418 176.68 42.4054" stroke="#5F39FF" stroke-width="3" stroke-linecap="round"/>
<path d="M176.68 42.4054C173.167 41.9419 165.183 40.6361 161.347 39.1209" stroke="#5F39FF" stroke-width="3" stroke-linecap="round"/>
<path d="M4.88044 69.1801C3.88444 69.1801 3.03844 69.0001 2.34244 68.6401C1.64644 68.2801 1.02244 67.7521 0.470441 67.0561L1.87444 65.6521C2.22244 66.1561 2.63644 66.5521 3.11644 66.8401C3.59644 67.1161 4.20844 67.2541 4.95244 67.2541C5.64844 67.2541 6.20044 67.1101 6.60844 66.8221C7.02844 66.5341 7.23844 66.1381 7.23844 65.6341C7.23844 65.2141 7.13044 64.8721 6.91444 64.6081C6.69844 64.3441 6.41044 64.1281 6.05044 63.9601C5.70244 63.7801 5.31244 63.6241 4.88044 63.4921C4.46044 63.3481 4.03444 63.1921 3.60244 63.0241C3.18244 62.8441 2.79244 62.6221 2.43244 62.3581C2.08444 62.0941 1.80244 61.7521 1.58644 61.3321C1.37044 60.9121 1.26244 60.3781 1.26244 59.7301C1.26244 58.9861 1.44244 58.3561 1.80244 57.8401C2.17444 57.3121 2.67244 56.9101 3.29644 56.6341C3.92044 56.3581 4.61644 56.2201 5.38444 56.2201C6.21244 56.2201 6.95044 56.3821 7.59844 56.7061C8.25844 57.0301 8.79244 57.4441 9.20044 57.9481L7.79644 59.3521C7.43644 58.9441 7.05844 58.6441 6.66244 58.4521C6.27844 58.2481 5.83444 58.1461 5.33044 58.1461C4.70644 58.1461 4.21444 58.2721 3.85444 58.5241C3.50644 58.7761 3.33244 59.1301 3.33244 59.5861C3.33244 59.9701 3.44044 60.2821 3.65644 60.5221C3.87244 60.7501 4.15444 60.9481 4.50244 61.1161C4.86244 61.2721 5.25244 61.4221 5.67244 61.5661C6.10444 61.7101 6.53044 61.8721 6.95044 62.0521C7.38244 62.2321 7.77244 62.4661 8.12044 62.7541C8.48044 63.0301 8.76844 63.3901 8.98444 63.8341C9.20044 64.2781 9.30844 64.8361 9.30844 65.5081C9.30844 66.6361 8.90644 67.5301 8.10244 68.1901C7.31044 68.8501 6.23644 69.1801 4.88044 69.1801ZM14.6149 69.1801C13.8349 69.1801 13.1269 68.9821 12.4909 68.5861C11.8669 68.1901 11.3689 67.6561 10.9969 66.9841C10.6369 66.3001 10.4569 65.5381 10.4569 64.6981C10.4569 63.8461 10.6369 63.0841 10.9969 62.4121C11.3689 61.7281 11.8669 61.1881 12.4909 60.7921C13.1269 60.3841 13.8349 60.1801 14.6149 60.1801C15.2749 60.1801 15.8569 60.3241 16.3609 60.6121C16.8769 60.8881 17.2849 61.2721 17.5849 61.7641C17.8849 62.2561 18.0349 62.8141 18.0349 63.4381V65.9221C18.0349 66.5461 17.8849 67.1041 17.5849 67.5961C17.2969 68.0881 16.8949 68.4781 16.3789 68.7661C15.8629 69.0421 15.2749 69.1801 14.6149 69.1801ZM14.9389 67.3081C15.6709 67.3081 16.2589 67.0621 16.7029 66.5701C17.1589 66.0781 17.3869 65.4481 17.3869 64.6801C17.3869 64.1641 17.2849 63.7081 17.0809 63.3121C16.8769 62.9161 16.5889 62.6101 16.2169 62.3941C15.8569 62.1661 15.4309 62.0521 14.9389 62.0521C14.4589 62.0521 14.0329 62.1661 13.6609 62.3941C13.3009 62.6101 13.0129 62.9161 12.7969 63.3121C12.5929 63.7081 12.4909 64.1641 12.4909 64.6801C12.4909 65.1961 12.5929 65.6521 12.7969 66.0481C13.0129 66.4441 13.3009 66.7561 13.6609 66.9841C14.0329 67.2001 14.4589 67.3081 14.9389 67.3081ZM17.2609 69.0001V66.6781L17.6029 64.5721L17.2609 62.4841V60.3601H19.2409V69.0001H17.2609ZM24.3543 69.0001L20.4123 60.3601H22.6083L25.6143 67.3981H24.3183L27.3423 60.3601H29.4483L25.5063 69.0001H24.3543ZM34.3293 69.1801C33.4653 69.1801 32.6853 68.9881 31.9893 68.6041C31.3053 68.2081 30.7593 67.6681 30.3513 66.9841C29.9553 66.3001 29.7573 65.5321 29.7573 64.6801C29.7573 63.8281 29.9553 63.0661 30.3513 62.3941C30.7473 61.7101 31.2813 61.1701 31.9533 60.7741C32.6373 60.3781 33.3933 60.1801 34.2213 60.1801C35.0253 60.1801 35.7333 60.3661 36.3453 60.7381C36.9693 61.1101 37.4553 61.6201 37.8033 62.2681C38.1633 62.9161 38.3433 63.6541 38.3433 64.4821C38.3433 64.6261 38.3313 64.7761 38.3073 64.9321C38.2953 65.0761 38.2713 65.2381 38.2353 65.4181H31.1433V63.7981H37.2093L36.4713 64.4461C36.4473 63.9181 36.3453 63.4741 36.1653 63.1141C35.9853 62.7541 35.7273 62.4781 35.3913 62.2861C35.0673 62.0941 34.6653 61.9981 34.1853 61.9981C33.6813 61.9981 33.2433 62.1061 32.8713 62.3221C32.4993 62.5381 32.2113 62.8441 32.0073 63.2401C31.8033 63.6241 31.7013 64.0861 31.7013 64.6261C31.7013 65.1661 31.8093 65.6401 32.0253 66.0481C32.2413 66.4561 32.5473 66.7741 32.9433 67.0021C33.3393 67.2181 33.7953 67.3261 34.3113 67.3261C34.7553 67.3261 35.1633 67.2481 35.5353 67.0921C35.9193 66.9361 36.2433 66.7081 36.5073 66.4081L37.7673 67.6861C37.3473 68.1781 36.8373 68.5501 36.2373 68.8021C35.6373 69.0541 35.0013 69.1801 34.3293 69.1801ZM42.94 67.7761L47.584 62.8441C47.968 62.4361 48.28 62.0701 48.52 61.7461C48.76 61.4221 48.934 61.1161 49.042 60.8281C49.15 60.5401 49.204 60.2461 49.204 59.9461C49.204 59.3821 49.018 58.9441 48.646 58.6321C48.286 58.3081 47.824 58.1461 47.26 58.1461C46.66 58.1461 46.132 58.2961 45.676 58.5961C45.22 58.8961 44.812 59.3641 44.452 60.0001L43.012 58.8121C43.504 57.9601 44.11 57.3181 44.83 56.8861C45.55 56.4421 46.384 56.2201 47.332 56.2201C48.112 56.2201 48.796 56.3761 49.384 56.6881C49.972 57.0001 50.428 57.4381 50.752 58.0021C51.076 58.5541 51.238 59.1961 51.238 59.9281C51.238 60.4561 51.172 60.9301 51.04 61.3501C50.92 61.7581 50.71 62.1721 50.41 62.5921C50.11 63.0001 49.696 63.4801 49.168 64.0321L45.604 67.7221L42.94 67.7761ZM42.94 69.0001V67.7761L44.722 67.1461H51.49V69.0001H42.94ZM56.6203 69.1801C55.7443 69.1801 54.9643 69.0301 54.2803 68.7301C53.5963 68.4181 53.0203 67.9681 52.5523 67.3801L53.9563 65.9761C54.2083 66.3601 54.5623 66.6661 55.0183 66.8941C55.4863 67.1221 56.0083 67.2361 56.5843 67.2361C57.1123 67.2361 57.5743 67.1401 57.9703 66.9481C58.3663 66.7561 58.6783 66.4801 58.9063 66.1201C59.1343 65.7601 59.2483 65.3341 59.2483 64.8421C59.2483 64.3261 59.1343 63.9001 58.9063 63.5641C58.6903 63.2161 58.3963 62.9581 58.0243 62.7901C57.6643 62.6101 57.2743 62.5201 56.8543 62.5201C56.3743 62.5201 55.9423 62.5741 55.5583 62.6821C55.1863 62.7901 54.8203 62.9821 54.4603 63.2581L54.5143 61.9621C54.7063 61.7101 54.9283 61.5061 55.1803 61.3501C55.4323 61.1821 55.7263 61.0561 56.0623 60.9721C56.3983 60.8881 56.7943 60.8461 57.2503 60.8461C58.1383 60.8461 58.8823 61.0321 59.4823 61.4041C60.0943 61.7761 60.5563 62.2741 60.8683 62.8981C61.1803 63.5101 61.3363 64.1941 61.3363 64.9501C61.3363 65.7661 61.1323 66.4921 60.7243 67.1281C60.3283 67.7641 59.7763 68.2681 59.0683 68.6401C58.3603 69.0001 57.5443 69.1801 56.6203 69.1801ZM54.4603 63.2581L53.3263 62.1241L53.8843 56.4001H55.7743L55.1263 62.3581L54.4603 63.2581ZM54.2443 58.2541L53.8843 56.4001H60.6343V58.2541H54.2443ZM65.2589 61.3141C64.7909 61.3141 64.3589 61.2001 63.9629 60.9721C63.5789 60.7441 63.2729 60.4381 63.0449 60.0541C62.8169 59.6701 62.7029 59.2381 62.7029 58.7581C62.7029 58.2781 62.8169 57.8521 63.0449 57.4801C63.2729 57.0961 63.5789 56.7901 63.9629 56.5621C64.3469 56.3341 64.7789 56.2201 65.2589 56.2201C65.7389 56.2201 66.1709 56.3341 66.5549 56.5621C66.9509 56.7901 67.2629 57.0961 67.4909 57.4801C67.7189 57.8521 67.8329 58.2781 67.8329 58.7581C67.8329 59.2381 67.7189 59.6701 67.4909 60.0541C67.2629 60.4381 66.9569 60.7441 66.5729 60.9721C66.1889 61.2001 65.7509 61.3141 65.2589 61.3141ZM65.2589 59.7841C65.5589 59.7841 65.7989 59.6881 65.9789 59.4961C66.1589 59.3041 66.2489 59.0581 66.2489 58.7581C66.2489 58.4581 66.1529 58.2181 65.9609 58.0381C65.7809 57.8461 65.5469 57.7501 65.2589 57.7501C64.9709 57.7501 64.7369 57.8461 64.5569 58.0381C64.3769 58.2181 64.2869 58.4581 64.2869 58.7581C64.2869 59.0581 64.3769 59.3041 64.5569 59.4961C64.7369 59.6881 64.9709 59.7841 65.2589 59.7841ZM70.5329 69.1801C70.0649 69.1801 69.6329 69.0661 69.2369 68.8381C68.8529 68.6101 68.5469 68.3041 68.3189 67.9201C68.0909 67.5361 67.9769 67.1041 67.9769 66.6241C67.9769 66.1441 68.0909 65.7181 68.3189 65.3461C68.5469 64.9621 68.8529 64.6561 69.2369 64.4281C69.6209 64.2001 70.0529 64.0861 70.5329 64.0861C71.0129 64.0861 71.4449 64.2001 71.8289 64.4281C72.2249 64.6561 72.5369 64.9621 72.7649 65.3461C72.9929 65.7181 73.1069 66.1441 73.1069 66.6241C73.1069 67.1041 72.9929 67.5361 72.7649 67.9201C72.5369 68.3041 72.2309 68.6101 71.8469 68.8381C71.4629 69.0661 71.0249 69.1801 70.5329 69.1801ZM70.5329 67.6501C70.8329 67.6501 71.0729 67.5541 71.2529 67.3621C71.4449 67.1701 71.5409 66.9241 71.5409 66.6241C71.5409 66.3361 71.4449 66.0961 71.2529 65.9041C71.0609 65.7121 70.8209 65.6161 70.5329 65.6161C70.2449 65.6161 70.0109 65.7121 69.8309 65.9041C69.6509 66.0961 69.5609 66.3361 69.5609 66.6241C69.5609 66.9241 69.6509 67.1701 69.8309 67.3621C70.0109 67.5541 70.2449 67.6501 70.5329 67.6501ZM62.8829 69.0001L70.9649 56.4001H72.9269L64.8449 69.0001H62.8829Z" fill="#5F39FF"/>
</svg>
