<svg width="19" height="19" viewBox="0 0 19 19" fill="none" xmlns="http://www.w3.org/2000/svg">
<path d="M9.5 0C14.748 0 19 4.25202 19 9.5C19 14.748 14.748 19 9.5 19C4.25202 19 0 14.748 0 9.5C0 4.25202 4.25202 0 9.5 0ZM5.05645 11.1855H9.5V13.9014C9.5 14.3113 9.99798 14.5181 10.2853 14.227L14.6637 9.82561C14.8438 9.64557 14.8438 9.35827 14.6637 9.17823L10.2853 4.77298C9.99415 4.48186 9.5 4.68871 9.5 5.09859V7.81452H5.05645C4.80363 7.81452 4.59677 8.02137 4.59677 8.27419V10.7258C4.59677 10.9786 4.80363 11.1855 5.05645 11.1855Z" fill="#5F39FF"/>
</svg>
