<svg width="26" height="34" viewBox="0 0 26 34" fill="none" xmlns="http://www.w3.org/2000/svg">
<path d="M13 8.66675V10.3334" stroke="#5F39FF" stroke-width="3.33333" stroke-linecap="round" stroke-linejoin="round"/>
<path d="M12.9999 2C14.5023 1.99979 15.9889 2.30642 17.3686 2.90108C18.7483 3.49575 19.992 4.36592 21.0235 5.45826C22.055 6.5506 22.8525 7.84209 23.3672 9.25357C23.8819 10.665 24.1029 12.1668 24.0166 13.6667L23.5499 22C23.4089 24.7016 22.2354 27.2458 20.272 29.1069C18.3086 30.968 15.7052 32.0037 12.9999 32C10.2946 32.0037 7.69131 30.968 5.72788 29.1069C3.76445 27.2458 2.59098 24.7016 2.44995 22L1.98328 13.6667C1.89704 12.1668 2.11804 10.665 2.63272 9.25357C3.1474 7.84209 3.94493 6.5506 4.97641 5.45826C6.00789 4.36592 7.25159 3.49575 8.63128 2.90108C10.011 2.30642 11.4976 1.99979 12.9999 2Z" stroke="white" stroke-width="3.33333" stroke-linecap="round" stroke-linejoin="round"/>
</svg>
