<svg width="28" height="24" viewBox="0 0 28 24" fill="none" xmlns="http://www.w3.org/2000/svg">
<path d="M8.83351 24C19.01 24 24.5769 14.7642 24.5769 6.76892C24.5769 6.51047 24.5769 6.24833 24.5667 5.98988C25.6506 5.13052 26.586 4.06657 27.3291 2.8479C26.3167 3.33683 25.2439 3.65906 24.1454 3.80415C25.3025 3.0466 26.1691 1.85466 26.5842 0.449871C25.4971 1.15529 24.3072 1.6505 23.0667 1.91379C22.2328 0.940965 21.1292 0.296497 19.927 0.0802122C18.7247 -0.136072 17.491 0.0878992 16.4167 0.717433C15.3425 1.34697 14.4877 2.34693 13.9849 3.56243C13.482 4.77793 13.3591 6.14114 13.6352 7.44088C11.4353 7.32006 9.2832 6.69409 7.3184 5.60358C5.3536 4.51307 3.62002 2.98237 2.2301 1.11076C1.52449 2.44561 1.30915 4.02457 1.62781 5.52701C1.94648 7.02946 2.77525 8.34274 3.94584 9.20017C3.06865 9.16753 2.21075 8.90953 1.44133 8.44698V8.53006C1.44284 9.92841 1.88511 11.2833 2.69337 12.3657C3.50163 13.4481 4.62632 14.1917 5.87731 14.4707C5.40247 14.6139 4.91196 14.6854 4.41944 14.683C4.07222 14.6841 3.72569 14.6489 3.3846 14.5777C3.73817 15.7815 4.42664 16.8339 5.35357 17.5877C6.28049 18.3414 7.39946 18.7588 8.55373 18.7812C6.59286 20.4681 4.17067 21.383 1.67729 21.3786C1.23794 21.3806 0.798892 21.3529 0.362671 21.2955C2.89333 23.0627 5.83231 24.001 8.83351 24V24Z" fill="#5F39FF"/>
</svg>
