<svg width="27" height="26" viewBox="0 0 27 26" fill="none" xmlns="http://www.w3.org/2000/svg">
<path d="M13.7542 10.1326C13.2268 10.1328 12.7112 10.2894 12.2728 10.5826C11.8343 10.8757 11.4926 11.2923 11.2909 11.7797C11.0892 12.267 11.0365 12.8032 11.1396 13.3205C11.2426 13.8378 11.4967 14.3129 11.8697 14.6858C12.2427 15.0587 12.7179 15.3126 13.2353 15.4154C13.7526 15.5183 14.2888 15.4654 14.776 15.2635C15.2633 15.0616 15.6798 14.7198 15.9728 14.2812C16.2658 13.8426 16.4222 13.327 16.4222 12.7996C16.4217 12.0923 16.1404 11.4141 15.6401 10.914C15.1399 10.4139 14.4615 10.1329 13.7542 10.1326ZM19.9897 8.08261C19.8539 7.73853 19.6489 7.42602 19.3873 7.16446C19.1258 6.9029 18.8133 6.69788 18.4692 6.56211C17.4192 6.14761 14.9192 6.24061 13.7542 6.24061C12.5892 6.24061 10.0917 6.14411 9.0387 6.56211C8.69462 6.69788 8.38211 6.9029 8.12055 7.16446C7.85899 7.42602 7.65397 7.73853 7.5182 8.08261C7.1042 9.13261 7.1967 11.6351 7.1967 12.7991C7.1967 13.9631 7.1042 16.4626 7.5202 17.5161C7.65597 17.8602 7.86099 18.1727 8.12255 18.4343C8.38411 18.6958 8.69662 18.9008 9.0407 19.0366C10.0907 19.4511 12.5907 19.3581 13.7562 19.3581C14.9217 19.3581 17.4182 19.4546 18.4712 19.0366C18.8153 18.9008 19.1278 18.6958 19.3893 18.4343C19.6509 18.1727 19.8559 17.8602 19.9917 17.5161C20.4092 16.4661 20.3132 13.9636 20.3132 12.7996C20.3132 11.6356 20.4092 9.13661 19.9917 8.08311L19.9897 8.08261ZM13.7542 16.8996C12.9433 16.8996 12.1506 16.6591 11.4764 16.2086C10.8021 15.7581 10.2766 15.1178 9.96629 14.3686C9.65597 13.6194 9.57478 12.7951 9.73298 11.9997C9.89118 11.2044 10.2817 10.4739 10.8551 9.90047C11.4285 9.32708 12.159 8.93659 12.9543 8.77839C13.7497 8.62019 14.574 8.70138 15.3232 9.0117C16.0724 9.32202 16.7127 9.84753 17.1632 10.5218C17.6137 11.196 17.8542 11.9887 17.8542 12.7996C17.8549 13.3382 17.7493 13.8717 17.5434 14.3694C17.3376 14.8671 17.0357 15.3194 16.6548 15.7002C16.274 16.0811 15.8217 16.383 15.324 16.5889C14.8262 16.7947 14.2928 16.9003 13.7542 16.8996ZM18.0232 9.48461C17.8339 9.48471 17.6488 9.42867 17.4914 9.32357C17.3339 9.21847 17.2112 9.06904 17.1387 8.89418C17.0662 8.71932 17.0472 8.52689 17.084 8.34121C17.1209 8.15554 17.212 7.98497 17.3458 7.85109C17.4796 7.7172 17.6502 7.626 17.8358 7.58903C18.0215 7.55207 18.2139 7.57099 18.3888 7.64341C18.5637 7.71583 18.7132 7.83849 18.8184 7.99588C18.9236 8.15327 18.9797 8.33831 18.9797 8.52761C18.9802 8.65332 18.9559 8.77789 18.9082 8.89419C18.8605 9.01048 18.7903 9.11621 18.7016 9.20531C18.6129 9.2944 18.5075 9.36512 18.3914 9.41339C18.2754 9.46166 18.1509 9.48655 18.0252 9.48661L18.0232 9.48461ZM22.5542 1.59961H4.9542C4.31768 1.59961 3.70723 1.85247 3.25714 2.30255C2.80706 2.75264 2.5542 3.36309 2.5542 3.99961L2.5542 21.5996C2.5542 22.2361 2.80706 22.8466 3.25714 23.2967C3.70723 23.7468 4.31768 23.9996 4.9542 23.9996H22.5542C23.1907 23.9996 23.8012 23.7468 24.2513 23.2967C24.7013 22.8466 24.9542 22.2361 24.9542 21.5996V3.99961C24.9542 3.36309 24.7013 2.75264 24.2513 2.30255C23.8012 1.85247 23.1907 1.59961 22.5542 1.59961ZM21.6982 16.0996C21.6337 17.3811 21.3412 18.5166 20.4057 19.4496C19.4702 20.3826 18.3357 20.6811 17.0557 20.7421C15.7352 20.8166 11.7762 20.8166 10.4557 20.7421C9.1742 20.6776 8.0427 20.3846 7.1057 19.4496C6.1687 18.5146 5.8742 17.3786 5.8132 16.0996C5.7387 14.7786 5.7387 10.8191 5.8132 9.49961C5.8777 8.21811 6.1667 7.08261 7.1057 6.14961C8.0447 5.21661 9.1792 4.92161 10.4557 4.86061C11.7762 4.78611 15.7352 4.78611 17.0557 4.86061C18.3372 4.92511 19.4722 5.21811 20.4057 6.15311C21.3392 7.08811 21.6372 8.22411 21.6982 9.50561C21.7727 10.8216 21.7727 14.7776 21.6982 16.0996Z" fill="#38323E"/>
</svg>
